<?xml version="1.0" standalone="no"?>
<!DOCTYPE svg PUBLIC "-//W3C//DTD SVG 20010904//EN"
 "http://www.w3.org/TR/2001/REC-SVG-20010904/DTD/svg10.dtd">
<svg version="1.0" xmlns="http://www.w3.org/2000/svg"
 width="460.000000pt" height="460.000000pt" viewBox="0 0 460.000000 460.000000"
 preserveAspectRatio="xMidYMid meet">

<g transform="translate(0.000000,460.000000) scale(0.100000,-0.100000)"
fill="#000000" stroke="none">
<path d="M2200 3825 c-24 -225 -19 -221 -76 -50 l-49 150 -5 -150 c-3 -104 -7
-139 -13 -115 -7 32 -104 240 -112 240 -2 0 5 -23 16 -50 24 -65 24 -99 -1
-40 l-19 45 -3 -123 -3 -124 -69 136 c-38 75 -70 135 -72 134 -1 -2 4 -61 12
-132 8 -70 13 -133 11 -139 -2 -7 -20 22 -40 63 -20 41 -51 100 -68 130 -24
44 -29 49 -25 25 3 -16 11 -73 17 -125 6 -52 13 -99 16 -105 3 -5 -5 1 -16 15
-11 14 -41 66 -67 115 -26 50 -44 79 -40 65 3 -14 13 -72 21 -130 9 -58 18
-111 20 -117 10 -29 -7 -7 -86 111 -46 69 -85 124 -86 123 -1 -1 9 -46 22
-100 12 -53 21 -97 18 -97 -2 0 -29 24 -60 53 -54 50 -56 51 -49 22 4 -16 25
-66 47 -109 22 -43 38 -81 35 -83 -2 -2 -33 31 -69 74 -36 43 -82 94 -102 113
l-36 35 56 -117 c30 -64 55 -120 55 -123 0 -4 -26 15 -57 42 -87 73 -143 115
-143 107 0 -4 23 -50 51 -101 28 -52 49 -96 47 -99 -2 -2 -46 33 -97 76 -51
44 -94 80 -95 80 -1 0 19 -44 46 -97 26 -53 47 -98 45 -99 -2 -2 -37 26 -80
61 -42 36 -79 65 -81 65 -6 0 65 -133 82 -152 8 -10 12 -18 8 -18 -12 0 -149
82 -173 104 -30 26 -29 11 3 -44 48 -83 84 -150 84 -158 0 -4 -4 -2 -8 3 -7
11 -189 135 -197 135 -5 0 48 -82 88 -132 33 -44 31 -46 -25 -15 -59 32 -74
41 -94 57 -18 14 -18 14 -2 -12 10 -14 29 -39 44 -55 14 -15 35 -41 47 -57 19
-27 17 -27 -69 19 -49 26 -97 55 -106 63 -10 8 -18 12 -18 9 0 -13 98 -145
144 -194 38 -42 29 -41 -111 6 -62 20 -113 35 -113 32 0 -3 30 -35 65 -70 36
-35 65 -67 65 -71 0 -4 -24 1 -52 10 -118 39 -120 37 -43 -35 l70 -66 -55 6
c-30 4 -83 13 -118 21 -35 8 -68 14 -74 14 -5 0 29 -33 75 -72 l85 -73 -31 -8
c-18 -5 -52 -7 -76 -4 -28 3 -39 2 -30 -4 11 -7 9 -10 -9 -15 -21 -6 -20 -8
17 -27 28 -14 37 -23 29 -29 -8 -5 -3 -8 14 -8 15 0 30 -5 34 -12 5 -8 -23
-10 -112 -5 l-119 6 65 -18 c73 -20 127 -45 114 -53 -5 -3 -43 -14 -84 -24
-73 -18 -74 -18 -37 -24 20 -4 40 -9 43 -13 3 -3 -30 -13 -73 -22 -108 -23
-114 -25 -108 -36 4 -5 51 -9 105 -9 123 0 123 -10 2 -64 -119 -54 -122 -60
-29 -53 42 3 77 3 77 1 0 -8 -122 -61 -158 -69 -50 -11 -32 -17 65 -24 l88 -6
-75 -45 c-41 -25 -83 -48 -93 -52 -10 -5 -28 -15 -40 -24 l-22 -15 25 6 c52
12 160 21 160 14 0 -8 -122 -91 -150 -102 -8 -3 18 -3 59 0 55 5 72 3 67 -5
-4 -7 -13 -12 -20 -12 -11 0 -136 -77 -136 -84 0 -2 26 3 57 10 31 7 59 12 60
10 2 -2 -11 -15 -29 -29 -18 -14 -51 -40 -73 -58 l-40 -32 40 7 c22 3 51 9 65
12 24 5 24 5 5 -10 -11 -8 -35 -25 -53 -38 -18 -13 -42 -31 -54 -41 -20 -16
-20 -17 -2 -18 18 0 18 -1 -1 -10 -16 -7 -13 -8 15 -6 19 2 44 7 55 11 24 8
12 -1 -50 -40 l-40 -25 55 6 55 6 -50 -47 -50 -47 35 7 c19 4 44 10 55 13 16
5 14 0 -10 -29 -17 -20 -43 -43 -58 -53 -16 -9 -27 -18 -25 -20 2 -2 27 1 57
7 29 5 56 7 59 3 3 -3 -19 -31 -49 -62 -30 -31 -46 -53 -36 -49 9 3 24 9 32
12 11 5 13 2 9 -10 -3 -9 -10 -13 -15 -10 -5 3 -17 0 -26 -6 -17 -11 -17 -11
0 -6 22 7 22 -12 -1 -37 -16 -19 -16 -19 8 -12 25 7 25 7 -4 -24 -35 -36 -26
-38 44 -11 27 11 50 16 50 11 0 -4 -16 -38 -35 -75 l-36 -67 28 7 c15 4 35 12
43 18 13 10 13 9 0 -9 -8 -11 -23 -26 -32 -33 -27 -20 -22 -33 8 -22 14 6 27
10 29 10 2 0 -2 -19 -10 -41 -16 -45 -19 -60 -7 -43 10 15 72 47 79 40 6 -5
-4 -35 -31 -99 l-17 -38 47 27 c41 24 46 25 41 8 -11 -36 -26 -108 -23 -112 2
-1 18 10 36 25 l33 28 -6 -46 c-3 -25 -9 -54 -13 -64 -6 -15 2 -12 29 12 21
18 40 33 44 33 3 0 3 -23 0 -51 l-6 -52 22 20 c48 43 50 41 43 -27 l-7 -63 39
32 c44 34 52 29 52 -31 l0 -30 27 17 c19 13 28 15 31 6 3 -9 7 -9 18 0 11 9
14 9 14 0 0 -8 25 -12 83 -11 45 1 210 0 367 -3 157 -3 256 -2 220 2 -60 6
-63 8 -40 19 22 11 15 12 -50 8 l-75 -4 50 20 c28 11 54 23 58 27 8 8 -140
-21 -178 -35 -23 -8 -15 1 29 34 34 26 31 27 -41 6 -30 -9 -57 -13 -60 -11 -3
3 20 25 51 49 30 23 54 43 53 45 -2 1 -22 -3 -46 -8 -76 -17 -78 -5 -6 33 70
37 71 46 5 29 -94 -24 -97 -23 -35 15 33 20 80 45 105 55 l45 18 -104 1 c-57
0 -101 3 -98 7 4 4 50 16 102 28 l94 21 -79 24 c-44 14 -80 29 -80 34 0 5 46
6 108 3 l107 -7 -90 46 c-49 25 -79 43 -65 40 14 -2 54 -8 90 -11 l65 -7 -73
43 c-40 24 -69 45 -64 47 6 2 45 -6 87 -17 l77 -19 -20 21 c-52 58 -66 128
-32 165 39 42 116 23 194 -47 l29 -26 -7 27 c-3 14 -9 34 -12 45 -4 10 13 -8
37 -39 23 -32 44 -56 45 -55 2 2 -3 34 -11 72 -8 38 -13 70 -11 72 1 2 15 -28
30 -67 38 -96 50 -100 43 -14 l-5 69 21 -68 c11 -37 25 -67 30 -67 6 0 8 30 4
77 -6 86 4 82 24 -9 7 -32 16 -58 20 -58 3 0 9 27 13 60 9 80 26 77 26 -5 0
-74 14 -86 25 -22 4 23 13 60 20 82 13 38 14 35 8 -50 -5 -82 -4 -89 11 -76 9
7 16 19 16 25 0 6 12 34 25 61 14 28 23 41 19 30 -3 -11 -8 -42 -11 -70 l-6
-50 21 26 c12 15 33 50 47 78 15 28 28 51 29 51 2 0 -5 -27 -15 -61 -10 -33
-19 -64 -19 -69 0 -4 17 8 38 27 103 95 212 98 212 4 0 -34 -29 -98 -57 -127
-20 -20 -23 -20 100 15 37 11 67 18 67 16 0 -3 -35 -25 -77 -50 -81 -47 -78
-51 21 -35 33 5 61 8 63 6 2 -2 -30 -20 -72 -41 -41 -20 -75 -37 -75 -38 0 -1
43 -1 95 1 52 2 95 0 95 -5 0 -4 -39 -20 -88 -35 -71 -22 -80 -27 -51 -27 20
-1 67 -11 105 -23 l69 -23 -95 -5 c-95 -5 -95 -5 -54 -18 23 -7 73 -28 110
-47 75 -38 75 -38 -60 -15 -33 5 -62 10 -65 10 -3 0 23 -12 59 -27 36 -14 76
-35 90 -45 l25 -20 -40 7 c-22 4 -49 9 -60 11 -19 5 -19 4 1 -13 12 -10 36
-26 53 -35 33 -18 43 -43 14 -35 -32 9 -98 19 -93 14 3 -3 23 -16 44 -31 46
-31 35 -33 -35 -7 -42 16 -48 17 -37 4 12 -15 7 -16 -47 -11 -60 6 -59 4 10
-24 30 -12 30 -12 -25 -19 -35 -5 -16 -6 54 -3 60 2 143 4 184 4 68 0 73 1 61
17 -13 15 -11 16 16 9 l30 -7 -35 30 -35 30 29 1 c24 0 27 2 16 15 -15 18 1
20 18 3 24 -24 11 2 -15 29 -14 15 -23 21 -18 13 5 -8 4 -12 0 -7 -21 18 -12
33 16 29 39 -6 37 6 -3 23 -18 8 -26 14 -18 15 13 0 13 1 0 10 -12 7 -8 10 14
10 24 0 27 2 16 15 -7 8 -27 19 -44 24 l-31 9 35 2 c35 1 35 1 13 17 -31 21
-29 33 5 34 24 0 22 2 -15 16 -46 16 -57 33 -20 33 46 0 47 16 2 29 -25 7 -45
17 -45 21 0 4 15 14 33 21 l32 14 -50 11 -50 10 38 14 c50 19 47 26 -10 22
-45 -3 -47 -2 -28 13 11 9 29 22 39 29 17 11 15 12 -16 8 -44 -5 -55 11 -28
38 l20 20 -35 0 c-40 0 -41 2 -18 37 l17 26 -39 -7 -40 -8 29 31 c27 29 25 46
-2 19 -9 -9 -12 -9 -12 1 0 10 -3 11 -14 2 -24 -20 -27 15 -4 45 l21 26 -24
-7 c-13 -4 -30 -10 -38 -13 -10 -4 -12 1 -6 19 4 13 13 30 19 38 9 12 7 12
-13 2 -23 -13 -23 -12 -17 14 l7 27 -37 -29 -37 -28 6 35 c4 19 4 30 -1 24 -4
-6 -18 -17 -30 -23 -22 -12 -23 -11 -17 11 4 12 14 37 22 53 14 29 13 29 -22
-7 -19 -21 -37 -38 -39 -38 -3 0 -1 14 4 30 10 34 3 33 -39 -4 l-24 -21 6 35
c4 19 9 46 13 60 l6 25 -19 -26 c-10 -15 -31 -40 -47 -55 l-29 -29 5 62 4 62
-33 -49 c-19 -28 -35 -50 -36 -50 -2 0 -2 30 0 68 2 59 1 64 -10 42 -6 -14
-20 -36 -29 -49 l-17 -24 -3 39 -3 39 -15 -45 -14 -45 -6 45 -7 45 -8 -34 -8
-33 -13 23 -13 24 -2 -30 c-1 -29 -1 -29 -14 10 -13 39 -13 39 -14 9 -1 -45
-14 -50 -27 -12 l-12 33 -1 -45 -1 -44 -35 54 -35 54 -1 -59 c0 -59 0 -60 -17
-36 -9 14 -24 34 -34 45 -15 20 -16 19 -11 -29 l5 -50 -34 38 -33 39 4 -48 3
-48 -25 30 -25 29 5 -30 c6 -29 5 -29 -13 -14 -38 32 -44 32 -32 -1 14 -42 1
-51 -24 -17 -28 38 -40 34 -22 -9 8 -20 13 -38 11 -40 -2 -2 -21 7 -42 21 -31
21 -36 23 -30 8 4 -10 10 -29 13 -42 4 -21 3 -22 -16 -12 -12 6 -24 16 -27 21
-15 25 -22 6 -9 -25 19 -45 18 -46 -11 -33 -28 13 -45 4 -27 -14 23 -23 14
-40 -18 -33 -34 8 -38 0 -13 -28 18 -19 17 -19 -19 -15 -41 4 -47 -2 -23 -22
8 -7 15 -19 15 -28 0 -12 -9 -13 -42 -8 l-43 6 28 -16 c23 -12 26 -18 16 -30
-6 -8 -25 -14 -42 -14 -29 0 -30 -1 -12 -20 17 -19 17 -20 -8 -31 -29 -13 -27
-29 4 -29 11 0 17 -4 14 -10 -3 -5 -17 -10 -31 -10 -13 0 -24 -3 -24 -7 0 -5
-21 -21 -48 -37 -26 -17 -58 -38 -72 -48 -56 -42 -133 -88 -138 -84 -2 3 3 16
12 28 9 13 24 34 33 48 10 14 59 80 110 147 87 116 106 144 68 107 -16 -17
-153 -98 -243 -145 -30 -16 -61 -34 -70 -41 -17 -13 -4 4 49 67 15 16 51 58
80 92 54 62 208 207 245 230 10 6 14 12 8 12 -6 1 -26 -10 -45 -24 -31 -22
-196 -108 -244 -126 -11 -4 -50 -21 -88 -38 -37 -17 -70 -31 -73 -31 -12 0 10
23 59 62 28 22 83 69 122 103 38 35 81 73 95 85 20 18 21 20 5 14 -11 -4 -63
-22 -115 -40 -52 -18 -126 -44 -164 -58 -39 -14 -71 -24 -73 -23 -1 2 25 23
58 48 33 24 75 56 92 70 27 21 81 55 207 130 8 4 35 19 60 32 167 89 165 87
45 56 -44 -11 -134 -31 -200 -45 -66 -14 -154 -33 -195 -43 -127 -31 -136 -33
-125 -23 37 36 392 211 555 274 52 20 64 27 38 23 -40 -6 -534 -45 -558 -44
-28 1 324 119 415 138 22 5 96 21 164 35 69 14 127 28 129 31 3 3 -147 5 -334
6 l-339 1 115 30 c179 45 283 67 440 92 l145 23 -120 6 c-309 18 -557 35 -562
41 -4 3 -2 6 3 6 5 0 54 7 109 15 229 36 407 58 510 64 l110 6 -120 23 c-66
13 -158 32 -205 42 -47 10 -128 26 -180 36 -194 34 -150 37 260 14 96 -6 204
-13 240 -16 l65 -5 -100 41 c-55 22 -122 49 -150 59 -178 69 -291 114 -295
118 -3 3 33 2 80 -1 218 -17 210 -16 160 -5 -46 10 -192 70 -186 76 1 2 36 -8
77 -23 65 -22 120 -36 363 -88 58 -13 58 -13 35 5 -13 10 -37 24 -54 31 -44
17 -428 267 -394 255 19 -6 57 -17 174 -47 64 -16 301 -94 410 -134 33 -13
-17 26 -150 116 -66 44 -134 92 -152 107 -17 14 -42 34 -55 44 -26 20 -36 24
125 -52 59 -28 124 -57 145 -65 20 -7 46 -17 57 -22 15 -6 13 -2 -7 17 -15 13
-44 53 -65 89 -35 61 -37 70 -38 150 0 80 2 88 32 132 99 141 308 81 486 -140
32 -39 32 -38 11 19 -8 24 -28 98 -44 164 -16 66 -33 131 -36 145 -4 14 38
-63 93 -170 122 -239 147 -281 151 -258 2 9 -15 110 -38 223 -23 114 -39 209
-36 212 3 4 6 0 6 -8 0 -8 11 -37 25 -65 32 -66 81 -181 117 -279 47 -129 53
-124 63 51 4 68 2 147 -5 207 -7 54 -10 100 -8 103 3 2 13 -35 23 -83 9 -49
23 -106 30 -128 7 -22 25 -86 41 -142 15 -57 31 -103 35 -103 5 0 10 15 13 33
14 85 26 205 26 250 0 88 10 55 51 -173 21 -116 25 -128 34 -118 6 6 34 151
66 348 12 74 25 144 30 155 8 17 9 16 4 -5 -16 -75 -16 -213 -1 -325 20 -139
25 -165 36 -165 4 0 10 10 13 23 3 12 26 72 51 132 26 61 60 154 77 208 17 54
33 97 35 95 2 -3 -3 -42 -10 -89 -8 -46 -20 -140 -26 -209 -6 -69 -14 -133
-16 -142 -3 -10 -2 -18 3 -18 9 1 28 38 104 205 28 61 59 126 68 145 10 19 24
52 30 73 27 81 21 21 -18 -171 -23 -111 -41 -204 -41 -208 0 -4 14 13 30 38
34 52 119 141 169 178 75 55 189 82 264 61 88 -25 121 -79 122 -196 0 -92 -19
-153 -70 -220 l-34 -43 45 15 c24 8 99 42 165 74 67 33 123 58 125 57 7 -7
-139 -115 -305 -225 -52 -35 -93 -63 -90 -63 8 0 135 39 189 58 191 68 446
139 434 121 -3 -5 -11 -9 -17 -9 -13 0 -56 -28 -154 -96 -72 -51 -192 -124
-203 -124 -4 0 -28 -12 -51 -26 -29 -17 -35 -24 -19 -19 14 3 81 15 150 25 76
12 163 33 224 55 54 20 101 33 104 31 3 -3 -4 -9 -14 -12 -10 -4 -44 -17 -74
-29 -30 -13 -64 -25 -75 -29 -11 -3 15 -4 58 -1 44 2 77 2 75 0 -1 -2 -45 -19
-95 -39 -51 -20 -133 -52 -183 -71 -49 -19 -92 -35 -94 -35 -3 0 -33 -13 -68
-29 -35 -16 -70 -31 -78 -34 -44 -16 48 -4 139 18 58 14 163 37 235 50 72 13
166 31 209 40 96 18 113 18 67 -2 -50 -22 -274 -101 -350 -123 -36 -10 -107
-32 -158 -48 l-93 -28 115 4 c148 6 590 -8 579 -18 -4 -4 -75 -19 -158 -34
-82 -15 -177 -34 -210 -43 -33 -8 -96 -23 -140 -32 l-80 -17 60 -8 c71 -8 239
-45 420 -92 l130 -34 -295 4 -295 5 70 -18 c71 -19 210 -68 385 -136 52 -20
114 -43 138 -52 24 -8 42 -17 40 -18 -5 -4 -219 21 -426 51 -101 14 -186 23
-189 20 -4 -3 1 -6 10 -6 26 0 179 -65 322 -137 120 -61 285 -152 285 -157 0
-4 -200 50 -270 73 -36 12 -74 23 -85 25 -25 5 -146 56 -162 68 -8 7 -18 -2
-32 -29 -11 -21 -29 -51 -41 -68 l-21 -30 3 58 3 58 -22 -28 c-13 -15 -23 -31
-23 -35 0 -5 -4 -8 -9 -8 -6 0 -11 21 -13 48 l-3 47 -16 -49 -16 -50 -8 35
c-6 26 -9 29 -12 14 -8 -34 -23 -41 -23 -12 0 36 -20 35 -21 0 l-1 -28 -13 30
c-12 24 -14 26 -15 9 0 -37 -14 -36 -32 3 l-17 38 -1 -35 -1 -35 -24 30 -25
30 0 -45 -1 -45 -25 40 -26 40 6 -55 6 -55 -41 45 c-26 29 -38 38 -35 25 20
-80 20 -78 -1 -66 -12 6 -23 17 -27 26 -3 8 -10 15 -15 15 -7 0 -7 -9 -1 -26
18 -45 11 -49 -26 -13 -39 36 -38 38 -18 -33 6 -23 6 -23 -21 2 l-27 25 7 -40
c6 -34 5 -38 -6 -25 -8 9 -22 22 -31 29 -17 12 -17 11 -12 -20 l7 -34 -38 35
c-35 33 -37 34 -30 10 4 -14 13 -35 21 -47 24 -39 15 -45 -22 -16 l-37 27 8
-24 c4 -14 10 -31 12 -37 6 -16 2 -16 -33 -3 l-27 11 18 -27 17 -26 -34 7 -33
7 24 -26 c30 -32 22 -43 -18 -23 -31 15 -31 15 -16 -6 25 -36 19 -47 -27 -48
-24 0 -37 -3 -29 -6 14 -6 51 -40 51 -47 0 -3 -21 -6 -47 -8 l-48 -3 38 -17
c48 -22 47 -32 -3 -25 -48 6 -51 -2 -7 -28 l32 -19 -50 -6 -50 -5 33 -14 c30
-12 31 -15 15 -26 -10 -7 -31 -15 -48 -20 l-30 -7 40 -13 40 -12 -37 -18 c-47
-23 -48 -33 -5 -37 l32 -3 -49 -33 -50 -32 37 0 c43 0 47 -11 11 -30 -14 -8
-29 -21 -34 -30 -7 -13 -3 -15 26 -12 43 5 43 -1 -1 -27 -40 -23 -38 -51 3
-51 26 0 26 0 -8 -25 -30 -22 -31 -25 -12 -25 26 0 28 -12 7 -30 -21 -18 -11
-24 15 -10 43 23 43 2 -1 -45 -25 -28 -34 -42 -19 -32 46 32 71 9 30 -28 -29
-26 -25 -32 17 -27 34 4 36 3 24 -12 -8 -9 -12 -18 -10 -20 7 -6 534 -18 529
-12 -3 3 -47 10 -98 17 -95 12 -103 19 -42 38 29 9 21 10 -45 5 l-80 -5 60 31
c60 30 60 30 20 25 -22 -3 -56 -9 -75 -12 -44 -7 -30 10 22 27 50 15 62 35 17
25 -88 -18 -87 -18 -56 0 15 9 27 18 27 20 0 3 -111 -36 -145 -51 -5 -3 3 5
19 18 15 13 42 35 60 51 l31 27 -73 -26 c-41 -14 -75 -24 -77 -22 -2 2 19 22
47 46 l50 42 -32 0 c-17 0 -40 -5 -51 -11 -11 -6 -24 -9 -30 -7 -5 2 24 25 65
53 41 27 74 50 73 52 -2 1 -38 -7 -81 -18 -43 -11 -80 -18 -83 -16 -7 8 119
47 156 49 20 1 0 4 -44 7 l-80 6 110 48 c61 27 97 46 81 42 -33 -7 -229 -25
-233 -21 -6 5 126 46 186 57 l64 12 -74 22 c-135 41 -136 44 -9 45 l115 1 -95
50 c-52 27 -84 48 -70 45 73 -15 172 -27 177 -23 3 3 -26 21 -63 41 -102 51
-124 71 -53 47 30 -10 75 -22 99 -26 l43 -7 -31 43 c-25 34 -32 53 -32 90 0
64 19 83 76 76 32 -3 57 -16 94 -47 27 -23 50 -40 50 -37 0 2 -7 24 -15 47
-20 56 -18 63 5 20 11 -19 28 -46 39 -59 l19 -25 -4 50 -5 49 18 -41 c10 -22
25 -52 35 -65 16 -23 16 -21 12 56 l-4 80 22 -77 c12 -43 26 -78 31 -78 6 0 8
33 4 82 -5 72 -4 80 8 58 7 -14 16 -50 21 -80 7 -50 8 -52 15 -25 3 17 8 48 9
70 2 39 2 40 10 10 4 -16 11 -48 16 -70 l7 -40 13 40 c7 22 14 54 15 70 1 17
5 -4 8 -45 l6 -75 17 45 c9 25 22 65 28 89 6 23 13 41 14 40 2 -2 0 -38 -4
-79 -4 -41 -6 -77 -5 -79 2 -1 20 28 40 65 20 38 34 62 31 53 -2 -9 -7 -38
-11 -65 l-7 -49 34 47 c18 25 38 54 45 65 8 12 8 6 -1 -17 -32 -82 -31 -88 8
-43 55 63 128 79 170 37 24 -24 19 -72 -14 -131 -35 -61 -34 -61 68 -34 39 10
69 14 66 9 -3 -5 -39 -26 -80 -45 -41 -20 -73 -37 -72 -38 2 -2 45 4 97 11 52
8 96 12 99 9 3 -2 -17 -14 -44 -26 -27 -12 -67 -29 -89 -39 l-40 -17 80 -7
c44 -4 91 -8 105 -9 15 -1 -11 -12 -62 -27 -48 -13 -84 -27 -80 -31 4 -3 43
-16 87 -28 117 -33 125 -43 28 -36 -45 3 -90 8 -100 12 -40 14 6 -17 91 -61
l89 -46 -49 -1 -49 0 48 -13 c27 -7 54 -19 60 -26 9 -10 8 -11 -8 -6 -11 3
-41 10 -66 15 -25 6 -54 14 -65 17 -24 10 24 -31 91 -75 42 -28 45 -32 20 -26
-116 29 -127 21 -49 -35 25 -18 43 -34 41 -37 -3 -2 -36 5 -74 16 l-68 20 50
-45 c53 -47 54 -56 4 -25 -20 12 -42 18 -58 15 -14 -3 -46 -1 -70 5 -54 12
-42 -2 25 -30 l49 -20 -73 5 c-82 5 -86 -5 -12 -29 28 -9 50 -17 50 -18 0 -1
-37 -1 -82 0 -70 2 -78 1 -49 -8 18 -6 31 -12 28 -15 -3 -3 -49 -14 -104 -25
l-98 -19 175 5 c96 3 219 5 273 5 96 0 98 1 92 21 -6 18 -4 21 13 17 15 -4 19
-1 17 11 -2 9 -4 16 -5 16 -1 0 -3 12 -5 28 -4 31 2 33 33 11 21 -14 22 -14
19 5 -2 11 -6 24 -10 27 -4 4 -7 14 -7 21 0 12 3 11 16 -1 21 -22 38 -20 28 2
-4 9 -7 27 -7 40 1 12 -3 22 -8 22 -5 0 -9 5 -9 10 0 16 15 12 55 -16 l37 -25
-7 75 c-4 42 -3 76 2 76 4 0 23 -9 41 -20 17 -11 32 -18 32 -16 0 2 -11 34
-25 70 -14 37 -25 71 -25 76 0 5 19 -2 43 -15 55 -32 59 -31 41 10 -13 32 -13
35 3 35 14 0 13 4 -7 25 -27 29 -9 35 28 9 12 -8 22 -13 22 -9 0 3 -18 41 -40
85 -22 44 -37 80 -32 80 5 0 36 -11 70 -24 34 -14 62 -21 62 -18 0 4 -23 33
-50 66 -28 32 -49 60 -48 62 2 1 21 -1 42 -6 l39 -9 -53 54 -53 54 58 -6 c70
-7 68 0 -19 64 -33 26 -52 43 -41 38 22 -9 118 -24 123 -20 2 2 -19 21 -47 42
-48 37 -64 56 -38 49 6 -3 34 -7 62 -10 58 -7 53 3 -21 40 l-49 24 39 -6 c50
-9 43 3 -34 57 -33 23 -58 44 -56 46 2 3 21 0 43 -6 68 -19 68 -12 3 50 l-65
60 35 -6 c19 -4 46 -9 60 -13 48 -11 -41 54 -94 69 -27 8 -51 20 -54 28 -4 12
9 13 72 8 42 -3 76 -4 76 -2 0 2 -29 19 -63 39 -35 19 -70 42 -77 51 -12 14
-11 16 11 11 41 -8 109 -16 109 -13 0 2 -34 25 -76 51 -41 27 -73 50 -71 52 2
2 43 -1 91 -7 48 -6 89 -9 91 -7 5 4 -102 59 -162 84 -23 9 -50 26 -60 37 -18
20 -17 20 82 14 112 -7 113 -8 -35 53 -91 37 -103 44 -107 57 -4 10 87 22 187
24 47 1 50 2 25 9 -16 4 -65 13 -107 20 -43 7 -78 17 -78 21 0 5 9 9 19 9 11
0 23 5 26 10 4 6 -14 10 -47 11 -29 0 -62 4 -73 9 l-20 8 20 7 c11 5 36 15 55
23 19 8 62 23 95 33 l60 18 -106 0 c-135 1 -174 8 -157 28 6 8 33 25 58 38 90
46 84 53 -37 48 l-108 -5 41 39 c23 21 65 58 93 82 29 24 51 44 49 46 -2 2
-52 -10 -113 -25 -60 -16 -118 -29 -128 -29 -24 -1 -12 19 56 92 29 31 52 57
51 57 -1 0 -27 -11 -58 -25 -82 -36 -91 -33 -56 19 17 24 30 47 30 52 0 4 8
16 17 26 17 18 -31 -1 -149 -61 -46 -23 -48 -16 -8 34 17 21 30 41 30 44 0 4
18 29 41 56 22 27 48 62 56 79 l15 29 -34 -20 c-36 -21 -190 -83 -208 -83 -5
0 5 23 23 51 17 28 45 71 60 96 27 44 27 46 5 30 -13 -9 -52 -33 -88 -53 -36
-21 -73 -44 -83 -52 -23 -20 -35 -7 -15 15 9 10 26 35 37 56 12 21 29 50 39
65 19 29 11 27 -44 -15 -17 -13 -34 -23 -38 -23 -5 0 -21 -9 -38 -21 -16 -12
-31 -19 -34 -17 -2 3 19 37 46 78 28 40 56 82 62 94 10 19 7 18 -24 -6 -19
-15 -59 -41 -88 -58 l-52 -31 41 76 c44 82 48 94 28 73 -8 -7 -29 -24 -47 -38
-18 -14 -51 -40 -73 -58 -40 -33 -62 -36 -35 -5 8 10 36 58 62 106 47 87 47
88 19 73 -15 -9 -48 -32 -73 -51 -103 -80 -109 -81 -80 -22 26 52 11 46 -29
-13 -36 -53 -71 -89 -71 -74 0 5 8 20 18 34 19 26 65 107 107 185 l27 50 -82
-80 c-88 -86 -90 -85 -44 29 31 77 30 78 -8 26 -18 -24 -42 -54 -54 -65 -11
-12 -35 -44 -53 -71 -19 -27 -31 -40 -27 -30 3 10 18 60 31 110 14 50 32 111
40 135 8 24 14 46 11 48 -4 5 -112 -140 -131 -178 -9 -16 -20 -29 -25 -29 -5
0 -12 -9 -15 -20 -26 -81 -13 77 19 240 5 23 -15 -6 -59 -87 -62 -114 -84
-148 -71 -105 7 20 46 242 46 257 -1 10 -23 -30 -72 -122 -27 -53 -38 -55 -32
-5 5 29 3 34 -6 22 -12 -16 -12 -18 5 70 10 49 2 37 -40 -60 l-36 -85 5 105 5
105 -28 -52 c-16 -29 -42 -92 -58 -140 l-28 -88 -3 120 -4 120 -20 -55 c-11
-30 -31 -84 -44 -120 l-24 -65 5 60 c2 33 7 105 10 160 l5 100 -20 -59 c-11
-32 -24 -64 -29 -70 -4 -6 -16 -36 -26 -66 -21 -67 -35 -84 -35 -45 -1 17 -9
77 -19 135 l-17 105 -13 -85 c-7 -47 -15 -94 -18 -105 -6 -17 -8 -16 -14 10
-4 17 -8 57 -9 90 l-3 60 -9 -82 c-6 -46 -14 -80 -19 -77 -5 3 -9 15 -10 27 0
12 -8 54 -18 92 l-17 70 -14 -120z m1408 -2011 c15 -10 21 -22 17 -32 -5 -14
-4 -14 12 1 12 10 23 13 33 7 15 -9 16 -7 -38 -74 l-24 -29 7 39 c6 38 6 39
-12 19 -10 -12 -27 -27 -37 -35 -18 -14 -19 -13 -11 45 10 83 13 87 53 59z
m122 -54 c0 -5 -13 -24 -29 -42 l-29 -33 2 35 c2 19 4 38 5 43 2 11 51 9 51
-3z m-3468 -32 c-5 -5 -20 -8 -33 -6 l-24 5 25 10 c28 12 47 6 32 -9z m3518 5
c14 -9 27 -19 30 -22 3 -3 12 -10 21 -16 33 -21 113 -81 130 -97 10 -9 32 -24
48 -33 17 -8 31 -17 31 -19 0 -2 -100 31 -145 49 -11 4 -34 14 -51 21 -24 9
-35 9 -44 1 -10 -9 -12 -8 -7 6 4 9 2 17 -4 17 -6 0 -6 7 1 19 5 11 10 22 10
25 0 10 -35 -7 -47 -23 -10 -12 -12 -13 -13 -2 0 10 -3 11 -14 2 -12 -10 -12
-3 2 38 9 28 18 51 22 51 3 0 17 -8 30 -17z m197 -279 c-3 -3 -12 -4 -19 -1
-8 3 -5 6 6 6 11 1 17 -2 13 -5z m-2987 -379 c11 -13 8 -15 -21 -15 -34 -1
-34 -1 -10 -14 23 -13 22 -14 -40 -50 -35 -20 -75 -44 -89 -54 -22 -15 -22
-13 7 24 37 47 119 124 132 124 5 0 14 -7 21 -15z"/>
<path d="M1750 2707 c-35 -16 -40 -25 -40 -79 0 -39 4 -50 31 -72 17 -15 43
-26 59 -26 16 0 42 11 59 26 26 21 31 33 31 67 0 47 -5 56 -40 80 -28 19 -64
21 -100 4z m27 -23 c10 -26 -14 -41 -35 -21 -15 16 -15 19 -2 27 21 14 30 12
37 -6z"/>
<path d="M2725 2708 c-31 -16 -45 -39 -45 -70 0 -66 56 -117 113 -102 37 9 77
59 77 96 0 64 -85 109 -145 76z m33 -31 c2 -12 -3 -17 -17 -17 -12 0 -21 6
-21 13 0 31 32 34 38 4z"/>
<path d="M2224 2349 c-49 -14 -94 -71 -94 -120 0 -22 6 -52 14 -68 18 -34 87
-81 130 -88 53 -8 131 40 162 99 57 109 -73 217 -212 177z"/>
<path d="M2180 2048 c1 -40 76 -74 139 -63 41 7 81 36 81 60 0 11 -11 9 -46
-10 -26 -14 -55 -25 -64 -25 -20 0 -77 27 -85 41 -9 13 -25 11 -25 -3z"/>
<path d="M3490 1864 c0 -7 52 -25 57 -20 2 2 -10 8 -26 14 -17 6 -31 9 -31 6z"/>
<path d="M3110 1296 c-28 -35 11 -93 48 -70 35 22 22 84 -18 84 -10 0 -23 -7
-30 -14z m35 -6 c3 -5 -1 -10 -10 -10 -9 0 -13 5 -10 10 3 6 8 10 10 10 2 0 7
-4 10 -10z"/>
<path d="M3518 1284 c-15 -33 -1 -58 35 -62 21 -3 30 3 39 24 11 23 10 28 -11
45 -32 26 -49 24 -63 -7z m37 6 c3 -5 -1 -10 -10 -10 -9 0 -13 5 -10 10 3 6 8
10 10 10 2 0 7 -4 10 -10z"/>
<path d="M3296 1159 c-14 -11 -26 -29 -26 -39 0 -23 55 -70 81 -70 26 0 69 47
69 76 0 50 -76 70 -124 33z"/>
<path d="M1516 1125 c4 -8 1 -15 -5 -15 -6 0 -11 5 -11 10 0 18 -19 10 -25
-11 -8 -24 19 -59 45 -59 40 0 56 61 21 80 -26 14 -31 13 -25 -5z"/>
<path d="M1898 1129 c-36 -20 -13 -79 31 -79 13 0 41 29 41 43 -1 32 -43 53
-72 36z m32 -3 c0 -3 -4 -8 -10 -11 -5 -3 -10 -1 -10 4 0 6 5 11 10 11 6 0 10
-2 10 -4z"/>
<path d="M3304 1031 c15 -16 29 -21 55 -19 48 4 51 24 4 24 -21 0 -47 4 -58 9
-20 8 -20 8 -1 -14z"/>
<path d="M3853 1003 c9 -2 25 -2 35 0 9 3 1 5 -18 5 -19 0 -27 -2 -17 -5z"/>
<path d="M1650 982 c-32 -26 -21 -63 25 -85 36 -17 58 -14 88 11 20 17 23 62
5 80 -19 19 -92 15 -118 -6z"/>
<path d="M1650 872 c0 -5 13 -15 28 -21 30 -13 74 -3 88 20 5 9 2 10 -12 4
-37 -15 -62 -17 -83 -6 -11 7 -21 8 -21 3z"/>
<path d="M3810 826 c0 -2 8 -10 18 -17 15 -13 16 -12 3 4 -13 16 -21 21 -21
13z"/>
<path d="M940 587 c0 -19 121 -221 140 -235 23 -16 104 -17 1265 -20 1403 -3
1285 -10 1330 78 13 25 39 72 59 104 20 33 36 63 36 68 0 4 -637 8 -1415 8
-778 0 -1415 -2 -1415 -3z m264 -73 c9 -4 21 -15 27 -26 20 -37 -39 -76 -69
-46 -15 15 -15 51 0 66 14 14 20 15 42 6z m270 -13 c23 -25 13 -59 -20 -67
-30 -8 -54 11 -54 40 0 45 44 61 74 27z m260 6 c21 -16 18 -55 -6 -70 -26 -17
-68 7 -68 37 0 39 41 57 74 33z m260 -3 c9 -8 16 -22 16 -29 0 -7 -7 -21 -16
-29 -30 -30 -74 -13 -74 29 0 42 44 59 74 29z m260 0 c9 -8 16 -22 16 -29 0
-7 -7 -21 -16 -29 -30 -30 -74 -13 -74 29 0 42 44 59 74 29z m254 4 c30 -30 0
-85 -41 -74 -35 8 -48 53 -22 73 23 16 47 17 63 1z m254 -5 c10 -9 18 -22 18
-29 0 -17 -28 -44 -45 -44 -18 0 -45 27 -45 45 0 16 27 45 42 45 6 0 20 -7 30
-17z m256 5 c17 -17 15 -53 -3 -68 -8 -7 -25 -10 -40 -6 -21 5 -25 12 -25 40
0 19 6 37 13 39 22 9 43 7 55 -5z m256 -7 c23 -25 13 -59 -20 -67 -30 -8 -54
11 -54 42 0 22 22 43 46 44 6 0 19 -9 28 -19z m254 7 c27 -27 7 -78 -29 -78
-21 0 -49 26 -49 45 0 35 53 58 78 33z"/>
</g>
</svg>
